<?xml version="1.0" encoding="utf-8"?>
<!-- Generator: Adobe Illustrator 20.1.0, SVG Export Plug-In . SVG Version: 6.00 Build 0)  -->
<svg version="1.1" id="Layer_1" xmlns="http://www.w3.org/2000/svg" xmlns:xlink="http://www.w3.org/1999/xlink" x="0px" y="0px"
	 viewBox="0 0 65 65" style="enable-background:new 0 0 65 65;" xml:space="preserve">
<style type="text/css">
	.st0{fill:#00AAAD;}
	.st1{fill:#FFFFFF;}
	.st2{fill-rule:evenodd;clip-rule:evenodd;fill:#231F20;}
	.st3{fill-rule:evenodd;clip-rule:evenodd;fill:#FFFFFF;}
	.st4{fill:#A72428;}
	.st5{fill-rule:evenodd;clip-rule:evenodd;fill:url(#SVGID_1_);}
</style>
<g>
	<rect x="0" y="0" class="st0" width="65" height="65"/>
	<path class="st1" d="M5,54.9c-0.4,0.9-0.8,1.7-1.2,2.6l-0.3,0.9l-0.3,0.9l-0.3,0.9c0,0-0.1,0.1-0.1,0.1c0,0-0.1,0-0.1,0
		c-0.1-0.1-0.2-0.3-0.2-0.5c0-0.2,0-0.4,0.1-0.6l0.4-1.2c0.1-0.4,0.2-0.8,0.4-1.1l0.4-1.2c0.1-0.2,0.2-0.4,0.2-0.6
		c0.1-0.2,0.2-0.4,0.3-0.6c0-0.1,0.1-0.2,0.2-0.3C4.4,54,4.5,54,4.6,54c0.1,0,0.1,0,0.2,0c0,0,0.1,0.1,0.1,0.1
		C5,54.2,5,54.3,5.1,54.4l0,0.1l0,0.1C5.1,54.7,5.1,54.8,5,54.9z"/>
	<path class="st1" d="M5.8,57.9L5.8,57.9c0.3,0,0.5-0.1,0.7-0.2c0.1-0.1,0.3-0.2,0.5-0.2c0.1,0,0.3,0,0.4,0.1c0.1,0,0.3,0.1,0.4,0.2
		c0.1,0.1,0.2,0.2,0.3,0.4l0.1,0.4l0.1,0.5v0.3l0,0.3l0,0.1c0,0.1-0.1,0.1-0.2,0.1c-0.1,0-0.2,0-0.3-0.1c-0.1-0.1-0.1-0.2-0.1-0.3
		l-0.1-0.6c0-0.1,0-0.2-0.1-0.3l-0.1-0.3c-0.1-0.2-0.2-0.3-0.4-0.3c-0.1,0-0.2,0-0.2,0c-0.3,0.1-0.5,0.2-0.7,0.3
		c-0.3,0.2-0.5,0.4-0.7,0.6l-0.6,0.7c-0.1,0.1-0.2,0.1-0.3,0.1l-0.2,0c-0.1,0-0.2-0.1-0.2-0.2c0,0,0-0.1,0-0.2
		c0.2-0.5,0.4-0.9,0.5-1.3L5,57.6L5.2,57c0-0.1,0.1-0.2,0.3-0.2l0.2,0c0,0,0.1,0.1,0.1,0.2c0,0.1,0,0.2,0,0.3l-0.1,0.2l-0.1,0.2
		l0,0.1C5.7,57.8,5.7,57.9,5.8,57.9z"/>
	<path class="st1" d="M13.1,57.1l-0.3,0.4l-0.3,0.3l-0.3,0.3l-0.3,0.3c-0.1,0.1-0.3,0.3-0.4,0.4c-0.1,0.1-0.3,0.3-0.4,0.4
		c-0.3,0.2-0.6,0.5-0.9,0.7c-0.1,0.1-0.2,0.1-0.3,0.1H9.8c-0.1,0-0.2,0-0.2-0.1c-0.2-0.2-0.3-0.4-0.3-0.7v-1.1l0-0.4v-0.2
		c0-0.1,0-0.1,0-0.2c0-0.1,0-0.2,0-0.2c0-0.3,0.2-0.5,0.4-0.6c0.1,0,0.1,0,0.2,0l0.2,0c0.1,0,0.1,0.1,0.1,0.2l-0.1,0.5l0,0.2
		c0,0.1,0,0.1,0,0.3l0,0.4V59l0,0.2c0,0.1,0,0.1,0.1,0.1c0.2,0,0.4-0.2,0.7-0.5l0.4-0.4l0.3-0.3l0.4-0.5l0.2-0.2l0.2-0.3l0.2-0.3
		c0.1-0.1,0.2-0.1,0.3-0.1c0.1,0,0.2,0.1,0.3,0.1l0,0.1c0,0,0,0.1,0,0.1L13.1,57.1z"/>
	<path class="st1" d="M15.7,58.2c-0.3,0.2-0.6,0.4-1,0.6c-0.3,0.1-0.7,0.2-1,0.2c-0.1,0.1-0.1,0.1-0.1,0.2c0,0.1,0,0.1,0,0.1
		c0,0.1,0.1,0.1,0.2,0.2c0.1,0,0.2,0.1,0.3,0.1h0.1c0,0,0,0,0.1,0c0,0,0.1,0,0.1,0c0,0,0.1,0,0.1,0c0,0,0.1,0,0.1,0
		c0.2,0,0.3-0.1,0.5-0.2l0.2-0.1l0.2-0.1c0.1,0,0.2,0,0.2,0.1l0,0.1c0,0.1,0,0.1-0.1,0.2c-0.5,0.3-1.1,0.5-1.7,0.5h-0.3
		c-0.1,0-0.3-0.1-0.5-0.2c-0.1-0.1-0.3-0.2-0.3-0.4l-0.1-0.2l0-0.2c0-0.1,0-0.2,0-0.2c0-0.1,0-0.1,0.1-0.2c0.1-0.4,0.3-0.7,0.7-1
		c0.3-0.3,0.7-0.6,1-0.8l0.4-0.2l0.3-0.1l0.2,0c0.2,0,0.4,0,0.7,0.1c0.1,0.1,0.2,0.2,0.2,0.4l0,0.2c-0.1,0.2-0.2,0.3-0.3,0.5
		l-0.2,0.2L15.7,58.2L15.7,58.2z M15.4,57.7L15.4,57.7L15.4,57.7l0.2-0.3c0,0,0-0.1,0.1-0.1c0,0-0.1-0.1-0.2-0.1l-0.2,0.1l-0.1,0
		l-0.1,0c-0.1,0-0.1,0.1-0.2,0.1c-0.1,0-0.1,0.1-0.2,0.2c-0.1,0.1-0.2,0.2-0.3,0.4c0,0.1,0,0.1,0,0.1h0.1
		C14.8,58.1,15.1,57.9,15.4,57.7z"/>
	<path class="st1" d="M18.1,57.9L18.1,57.9c0.3,0,0.5-0.1,0.8-0.2c0.1-0.1,0.3-0.2,0.5-0.2c0.1,0,0.3,0,0.4,0.1
		c0.1,0,0.3,0.1,0.4,0.2c0.1,0.1,0.2,0.2,0.3,0.4l0.1,0.4l0.1,0.5v0.3l0,0.3l0,0.1c0,0.1-0.1,0.1-0.2,0.1c-0.1,0-0.2,0-0.3-0.1
		C20,59.7,20,59.6,20,59.5l-0.1-0.6c0-0.1,0-0.2-0.1-0.3l-0.1-0.3c-0.1-0.2-0.2-0.3-0.4-0.3c-0.1,0-0.2,0-0.2,0
		c-0.3,0.1-0.5,0.2-0.7,0.3c-0.3,0.2-0.5,0.4-0.7,0.6l-0.6,0.7c-0.1,0.1-0.2,0.1-0.3,0.1l-0.2,0c-0.1,0-0.2-0.1-0.2-0.2
		c0,0,0-0.1,0-0.2c0.2-0.5,0.4-0.9,0.5-1.3l0.2-0.6l0.2-0.7c0-0.1,0.1-0.2,0.3-0.2l0.2,0c0.1,0,0.1,0.1,0.1,0.2c0,0.1,0,0.2,0,0.3
		L18,57.4L18,57.6l0,0.1C17.9,57.8,18,57.9,18.1,57.9z"/>
	<path class="st1" d="M24.3,54.8l-0.2,0.2L24,55.3l-0.1,0.2l-0.1,0.2l-0.1,0.2l-0.1,0.1l0,0l0.5-0.1l0.2,0l0.2,0
		c0.1,0.1,0.1,0.2,0.1,0.2c0,0.1-0.1,0.1-0.2,0.2l-0.3,0.1l-0.5,0.1l-0.5,0.1c-0.1,0-0.1,0.1-0.2,0.2L23,56.9L23,57
		c-0.1,0.1-0.2,0.3-0.3,0.5c-0.1,0.2-0.2,0.5-0.2,0.7c0,0.1,0,0.2-0.1,0.3c0,0.1,0,0.2,0,0.3l0,0.2c0,0.2,0.1,0.4,0.3,0.5h0.2
		c0.2,0,0.3,0,0.5-0.1c0.1-0.1,0.2-0.2,0.3-0.2c0.1-0.1,0.2-0.1,0.2-0.2c0.1-0.1,0.1-0.1,0.1-0.1c0,0,0.1,0,0.1,0.1c0,0,0,0.1,0,0.2
		c0,0.1-0.1,0.3-0.3,0.4l-0.4,0.3c-0.3,0.2-0.7,0.4-1,0.4c-0.5,0-0.8-0.2-0.9-0.7c0-0.1,0-0.1,0-0.2v-0.1c0-0.2,0-0.3,0-0.4
		c0-0.1,0.1-0.3,0.1-0.5c0.1-0.4,0.3-0.8,0.4-1.1c0,0-0.2,0-0.5,0.1l-0.6,0.1l-0.1,0l-0.2,0c-0.1,0-0.1-0.1-0.2-0.2l0-0.1
		c0-0.1,0-0.1,0-0.1c0,0,0-0.1,0.1-0.2c0.1-0.1,0.4-0.3,0.9-0.3l0.6-0.1l0.3-0.1l0.1-0.1l0.1-0.2l0.4-0.6c0.2-0.2,0.3-0.5,0.5-0.7
		c0.1-0.1,0.1-0.2,0.2-0.2c0.1-0.1,0.2-0.2,0.3-0.3c0.1-0.1,0.2-0.1,0.3-0.1c0.1,0,0.1,0,0.2,0c0.1,0,0.1,0.1,0.1,0.1
		c0,0.2,0,0.3-0.1,0.4C24.4,54.6,24.4,54.7,24.3,54.8z"/>
	<path class="st1" d="M26.2,57L26,57.3l-0.2,0.3c-0.1,0.2-0.2,0.4-0.3,0.6c-0.1,0.2-0.2,0.5-0.3,0.8l-0.1,0.4L25,59.8
		c0,0.1-0.1,0.2-0.2,0.2c-0.1,0-0.1,0-0.2,0c-0.1-0.1-0.1-0.2-0.1-0.4l0-0.4c0.1-0.4,0.2-0.8,0.3-1.2c0.1-0.4,0.3-0.7,0.4-1
		c0-0.1,0.1-0.1,0.1-0.2c0-0.1,0.1-0.2,0.1-0.2c0.1-0.1,0.2-0.2,0.3-0.2c0.1,0,0.3,0.1,0.4,0.2c0,0.1,0.1,0.2,0.1,0.3l0,0.1
		C26.3,57,26.3,57,26.2,57L26.2,57z M27.2,55.3L27.2,55.3c0,0.1-0.1,0.1-0.3,0.2c-0.1,0-0.2,0-0.3-0.1c-0.1-0.1-0.1-0.2-0.1-0.3
		l0-0.2c0-0.1,0-0.2,0.1-0.3c0.1-0.1,0.2-0.2,0.3-0.2c0.1,0,0.2,0,0.3,0.1c0.1,0.1,0.1,0.2,0.1,0.3l0,0.2
		C27.3,55.1,27.3,55.2,27.2,55.3z"/>
	<path class="st1" d="M27.8,57.9L27.8,57.9c0.3,0,0.5-0.1,0.8-0.2c0.1-0.1,0.3-0.2,0.5-0.2c0.1,0,0.3,0,0.4,0.1
		c0.1,0,0.3,0.1,0.4,0.2c0.1,0.1,0.2,0.2,0.3,0.4l0.1,0.4l0.1,0.5v0.3l0,0.3l0,0.1c0,0.1-0.1,0.1-0.2,0.1c-0.1,0-0.2,0-0.3-0.1
		c-0.1-0.1-0.1-0.2-0.1-0.3l-0.1-0.6c0-0.1,0-0.2-0.1-0.3l-0.1-0.3c-0.1-0.2-0.2-0.3-0.4-0.3c-0.1,0-0.2,0-0.2,0
		c-0.3,0.1-0.5,0.2-0.7,0.3c-0.3,0.2-0.5,0.4-0.7,0.6l-0.6,0.7c-0.1,0.1-0.2,0.1-0.3,0.1l-0.2,0c-0.1,0-0.2-0.1-0.2-0.2
		c0,0,0-0.1,0-0.2c0.2-0.5,0.4-0.9,0.5-1.3l0.2-0.6l0.2-0.7c0-0.1,0.1-0.2,0.3-0.2l0.2,0c0,0,0.1,0.1,0.1,0.2c0,0.1,0,0.2,0,0.3
		l-0.1,0.2l-0.1,0.2l0,0.1C27.7,57.8,27.7,57.9,27.8,57.9z"/>
	<path class="st1" d="M33.5,61.3c-0.2,0.4-0.4,0.8-0.8,1.2c-0.3,0.4-0.7,0.7-1.1,0.9c-0.2,0.1-0.4,0.1-0.7,0.2h-0.2
		c-0.2,0-0.4,0-0.6-0.1c-0.1-0.1-0.1-0.1-0.1-0.2l0-0.1c0-0.1,0.1-0.2,0.2-0.2l0.2,0l0.1,0l0.1,0h0.1c0.1,0,0.2,0,0.3,0
		c0.1,0,0.2-0.1,0.3-0.1c0.3-0.1,0.6-0.4,0.9-0.8c0.3-0.4,0.5-0.8,0.7-1.2l0.3-0.6l0.2-0.6l0.1-0.3l0.1-0.2l-0.2,0.2l-0.2,0.1
		c-0.3,0.2-0.7,0.4-1.1,0.4l-0.2,0c-0.1,0-0.3,0-0.4-0.1c-0.2-0.1-0.3-0.2-0.3-0.3l0-0.3l0-0.2c0.1-0.4,0.3-0.7,0.6-1
		c0.3-0.3,0.6-0.5,0.9-0.8c0.2-0.1,0.4-0.2,0.7-0.3l0.2,0l0.2,0c0,0,0.1,0,0.1,0c0.1,0,0.1,0,0.2,0c0.1,0,0.1,0,0.2,0
		c0,0,0.1-0.1,0.2-0.1c0.1,0,0.2,0.1,0.3,0.3l0.1,0.2c0,0,0,0.1,0,0.2c0,0.3-0.1,0.6-0.2,1c-0.1,0.4-0.2,0.7-0.3,1.1L34.1,60
		c0,0,0,0.1,0,0.1c0,0.1,0,0.1-0.1,0.1l-0.1,0.3L33.7,61L33.5,61.3L33.5,61.3z M32.5,59.2L32.5,59.2l0.4-0.2
		c0.1-0.1,0.3-0.2,0.5-0.4c0.3-0.3,0.4-0.5,0.4-0.8l0-0.1c0-0.1-0.1-0.1-0.2-0.1l-0.3,0c-0.3,0.1-0.6,0.2-0.9,0.5l-0.3,0.4L32,58.7
		l-0.1,0.2l0,0.2c0,0.1,0.1,0.2,0.2,0.2C32.2,59.3,32.4,59.2,32.5,59.2z"/>
	<path class="st1" d="M41.2,56.6l0.3,0c0.1,0,0.2,0,0.2,0c0,0,0.1,0.1,0.1,0.1l0,0.1c0,0.1-0.1,0.1-0.2,0.1c-0.2,0-0.4,0.1-0.6,0.1
		l-0.3,0l-0.3,0c-0.2,0.5-0.5,1-0.6,1.6c-0.1,0.3-0.2,0.5-0.3,0.8c-0.1,0.3-0.2,0.5-0.3,0.8c-0.1,0.1-0.2,0.2-0.3,0.2
		c-0.1,0-0.2-0.1-0.3-0.2c-0.1-0.1-0.1-0.2-0.1-0.3c0.1-0.5,0.3-0.9,0.5-1.4l0.3-0.7l0.3-0.7c-0.1,0-0.3,0.1-0.6,0.1
		c-0.1,0-0.3,0.1-0.4,0.1l-0.2,0c-0.1,0-0.1-0.1-0.2-0.2c0-0.1,0-0.2,0.1-0.3l0.4-0.1l0.4-0.1l0.4-0.1l0.5-0.1l0.2-0.4l0.2-0.4
		l0.2-0.4l0.2-0.4c0.1-0.2,0.3-0.3,0.4-0.5c0.1,0,0.1-0.1,0.2-0.1l0.3,0c0.1,0,0.3,0.1,0.4,0.2c0.1,0.1,0.2,0.2,0.2,0.4
		c0,0.1,0,0.2-0.1,0.2l-0.1,0c-0.1,0-0.1,0-0.2-0.1c-0.1-0.1-0.1-0.1-0.2-0.1c-0.1,0-0.2,0-0.3,0.1c-0.2,0.2-0.3,0.4-0.4,0.6
		l-0.2,0.3l-0.2,0.4H41L41.2,56.6z"/>
	<path class="st1" d="M45.8,58l0,0.3v0.7l0,1c0,0.1,0,0.1-0.1,0.2l-0.1,0l-0.1,0c-0.1,0-0.1-0.1-0.2-0.1c-0.1-0.1-0.2-0.3-0.2-0.5
		l0-0.3v-0.8c0-0.1,0-0.1,0-0.2c0,0,0-0.1-0.1-0.1l-0.1,0c-0.4,0.3-0.7,0.6-0.9,0.8c-0.4,0.4-0.7,0.6-0.9,0.8
		C43,59.9,42.7,60,42.5,60l-0.2,0l-0.2,0c-0.2,0-0.3-0.1-0.4-0.3c-0.1-0.1-0.1-0.1-0.1-0.2c0-0.1,0-0.2,0-0.3c0-0.2,0-0.4,0-0.6
		c0-0.1,0.1-0.3,0.1-0.5c0.1-0.2,0.1-0.3,0.2-0.5c0.1-0.1,0.1-0.3,0.2-0.4c0.1-0.2,0.3-0.2,0.4-0.2l0.1,0c0.1,0,0.2,0.1,0.3,0.3
		c0,0.1,0,0.1,0,0.2l-0.1,0.1l-0.2,0.3l-0.2,0.3c-0.1,0.2-0.2,0.4-0.2,0.6c0,0.1,0.1,0.2,0.2,0.3c0.1,0,0.1,0,0.2,0l0.1,0
		c0.2-0.1,0.4-0.3,0.5-0.5c0.1-0.2,0.3-0.4,0.5-0.5c0.3-0.3,0.5-0.5,0.6-0.6c0.2-0.2,0.4-0.4,0.7-0.6c0.1,0,0.1,0,0.2,0
		c0.1,0,0.3,0,0.4,0.1c0.1,0.1,0.1,0.2,0.1,0.3l0,0.1l0,0.3L45.8,58z"/>
	<path class="st1" d="M50,54.8l-0.2,0.2l-0.1,0.2l-0.1,0.2l-0.1,0.2l-0.1,0.2l-0.1,0.1l0,0l0.5-0.1l0.2,0l0.2,0
		c0.1,0.1,0.1,0.2,0.1,0.2c0,0.1-0.1,0.1-0.2,0.2l-0.3,0.1l-0.5,0.1L49,56.6c-0.1,0-0.1,0.1-0.2,0.2l-0.1,0.1L48.7,57
		c-0.1,0.1-0.2,0.3-0.3,0.5c-0.1,0.2-0.2,0.5-0.2,0.7c0,0.1,0,0.2-0.1,0.3c0,0.1,0,0.2,0,0.3l0,0.2c0,0.2,0.1,0.4,0.3,0.5h0.2
		c0.2,0,0.3,0,0.5-0.1c0.1-0.1,0.2-0.2,0.3-0.2c0.1-0.1,0.2-0.1,0.2-0.2c0.1-0.1,0.1-0.1,0.1-0.1c0,0,0.1,0,0.1,0.1c0,0,0,0.1,0,0.2
		c0,0.1-0.1,0.3-0.3,0.4l-0.4,0.3c-0.3,0.2-0.7,0.4-1,0.4c-0.5,0-0.8-0.2-0.9-0.7c0-0.1,0-0.1,0-0.2v-0.1c0-0.2,0-0.3,0-0.4
		c0-0.1,0.1-0.3,0.1-0.5c0.1-0.4,0.3-0.8,0.4-1.1c0,0-0.2,0-0.5,0.1l-0.6,0.1l-0.1,0l-0.2,0c-0.1,0-0.1-0.1-0.2-0.2l0-0.1
		c0-0.1,0-0.1,0-0.1c0,0,0-0.1,0.1-0.2c0.1-0.1,0.4-0.3,0.9-0.3l0.6-0.1l0.3-0.1l0.1-0.1l0.1-0.2l0.4-0.6c0.2-0.2,0.3-0.5,0.5-0.7
		c0.1-0.1,0.1-0.2,0.2-0.2c0.1-0.1,0.2-0.2,0.3-0.3C49.9,54,49.9,54,50,54c0.1,0,0.1,0,0.2,0c0.1,0,0.1,0.1,0.1,0.1
		c0,0.2,0,0.3-0.1,0.4C50.2,54.6,50.1,54.7,50,54.8z"/>
	<path class="st1" d="M54.7,58l0,0.3v0.7l0,1c0,0.1,0,0.1-0.1,0.2l-0.1,0l-0.1,0c-0.1,0-0.1-0.1-0.2-0.1c-0.1-0.1-0.2-0.3-0.2-0.5
		l0-0.3v-0.8c0-0.1,0-0.1,0-0.2c0,0,0-0.1-0.1-0.1l-0.1,0c-0.4,0.3-0.7,0.6-0.9,0.8c-0.4,0.4-0.7,0.6-0.9,0.8
		c-0.2,0.2-0.4,0.2-0.7,0.2l-0.2,0l-0.2,0c-0.2,0-0.3-0.1-0.4-0.3c-0.1-0.1-0.1-0.1-0.1-0.2c0-0.1,0-0.2,0-0.3c0-0.2,0-0.4,0-0.6
		c0-0.1,0.1-0.3,0.1-0.5c0.1-0.2,0.1-0.3,0.2-0.5c0.1-0.1,0.1-0.3,0.2-0.4c0.1-0.2,0.2-0.2,0.4-0.2l0.1,0c0.1,0,0.2,0.1,0.3,0.3
		c0,0.1,0,0.1,0,0.2l-0.1,0.1l-0.2,0.3l-0.2,0.3c-0.1,0.2-0.2,0.4-0.2,0.6c0,0.1,0.1,0.2,0.2,0.3c0.1,0,0.1,0,0.2,0l0.1,0
		c0.2-0.1,0.4-0.3,0.5-0.5c0.1-0.2,0.3-0.4,0.5-0.5c0.3-0.3,0.5-0.5,0.6-0.6c0.2-0.2,0.4-0.4,0.7-0.6c0.1,0,0.2,0,0.2,0
		c0.1,0,0.3,0,0.4,0.1c0.1,0.1,0.1,0.2,0.1,0.3l0,0.1l0,0.3L54.7,58z"/>
	<path class="st1" d="M57.1,57.5c0,0,0.2-0.1,0.5-0.2c0.3-0.1,0.5-0.2,0.6-0.3l0.3-0.1l0.2-0.1l0.3,0l0.3,0c0,0,0.1,0.1,0.1,0.1
		l0,0.2c0,0.1-0.1,0.2-0.1,0.2c-0.2,0.1-0.4,0.1-0.6,0.2c-0.2,0-0.4,0.1-0.6,0.2l-0.3,0.2L57.6,58c-0.2,0.1-0.3,0.2-0.4,0.4
		l-0.3,0.3L56.7,59c-0.2,0.2-0.3,0.5-0.5,0.7c0,0.1-0.1,0.1-0.2,0.1l-0.2,0c-0.1,0-0.1,0-0.1,0l-0.1-0.1l0-0.2l0-0.2l0-0.1l0.1-0.2
		l0.2-0.4l0.2-0.4c0-0.1,0.1-0.3,0.1-0.4c0.1-0.2,0.1-0.4,0.1-0.5c0-0.1,0.1-0.2,0.1-0.4c0-0.1,0.1-0.2,0.2-0.3c0,0,0.1-0.1,0.3-0.1
		h0.1c0.1,0,0.2,0,0.2,0.1c0.1,0.1,0.1,0.2,0.1,0.3l0,0.1l0,0.2V57.5z"/>
	<path class="st1" d="M62.1,58.2c-0.3,0.2-0.6,0.4-1,0.6c-0.3,0.1-0.7,0.2-1,0.2C60,59.1,60,59.1,60,59.2c0,0.1,0,0.1,0,0.1
		c0,0.1,0.1,0.1,0.2,0.2c0.1,0,0.2,0.1,0.3,0.1h0.1c0,0,0,0,0.1,0c0,0,0.1,0,0.1,0c0,0,0.1,0,0.1,0c0,0,0.1,0,0.1,0
		c0.2,0,0.3-0.1,0.5-0.2l0.2-0.1l0.2-0.1c0.1,0,0.2,0,0.2,0.1l0,0.1c0,0.1,0,0.1-0.1,0.2c-0.5,0.3-1.1,0.5-1.7,0.5H60
		c-0.1,0-0.3-0.1-0.5-0.2c-0.1-0.1-0.3-0.2-0.3-0.4l-0.1-0.2l0-0.2c0-0.1,0-0.2,0-0.2c0-0.1,0-0.1,0.1-0.2c0.1-0.4,0.3-0.7,0.7-1
		c0.3-0.3,0.7-0.6,1-0.8l0.4-0.2l0.3-0.1l0.2,0c0.2,0,0.4,0,0.7,0.1c0.1,0.1,0.2,0.2,0.2,0.4l0,0.2c-0.1,0.2-0.2,0.3-0.3,0.5
		l-0.2,0.2L62.1,58.2L62.1,58.2z M61.8,57.7L61.8,57.7L61.8,57.7l0.2-0.3c0,0,0-0.1,0.1-0.1c0,0-0.1-0.1-0.2-0.1l-0.2,0.1l-0.1,0
		l-0.1,0c-0.1,0-0.1,0.1-0.2,0.1c-0.1,0-0.1,0.1-0.2,0.2c-0.1,0.1-0.2,0.2-0.3,0.4c0,0.1,0,0.1,0,0.1h0.1
		C61.1,58.1,61.5,57.9,61.8,57.7z"/>
	<path class="st2" d="M18.5,15.5C-4.9,12,5.9,31.7,37.3,42C22.2,35.5,11.9,29,8.9,22.7C6.7,17.4,9.9,15,18.5,15.5z"/>
	<path class="st3" d="M18.2,27.2c1.4-1,2.8-2.1,4.3-3.1c1.8-1.2,3-0.7,2.6,0.9l-2.8,12.3c-0.4,2-0.3,2.8,1.5,1.9l2-1.4
		c0.1,0.2,0.3,0.4,0.4,0.6l-0.4,0.3c-0.5,0.4-0.7,0.6-1,0.9c-0.2,0.2-0.5,0.4-0.9,0.7c-2.7,1.9-4.7,2.5-4.7,0.4
		c0-2.3,1.4-6.9,2.8-12.7c0.6-2.3-0.5-2.1-1.2-1.6l-2.2,1.5L18.2,27.2z"/>
	<path class="st3" d="M29.5,15.5c2.1-0.2,4.1-0.8,6-1.7l0.5,0.4l-2.9,14.9c2.3-3.1,4.7-5.2,7.3-6c2-0.5,2.9,0.3,3.2,2.3
		c0.8,8.3-4.9,17.4-12.1,16.3c-2-0.4-2.9-1.6-2.3-4.3l3.1-19.6c0.1-1-0.1-1.6-1.1-1.5l-2,0.1L29.5,15.5L29.5,15.5z M32.6,32.5
		L32.6,32.5c-1,3.9-1.4,6.4,0.3,7.3c3.1,1.1,5.9-1,7.3-6.2c0.4-1.4,0.7-2.8,0.9-4.3c0.7-5.6-3.2-5.3-6.9-0.2
		C33.3,30.2,32.9,31.4,32.6,32.5z"/>
	<path class="st3" d="M57.6,23.6c-1.9-1.1-3.9-1.2-6.1-0.4c-5.8,2.4-7.1,8.7-0.9,9.7c4.4,0.1,4.8,1.9,4.2,4
		c-0.7,2.3-3.5,4.2-7.8,1.7v-3.2h-0.9c-0.1,1.8-0.4,3.5-0.7,4.9c2.7,1.5,5.2,1.5,7.8-0.1c4.9-3,6.7-9.4-0.8-9.7
		c-8.2-0.6-1.1-10.5,3.7-4.7l0,2H57L57.6,23.6z"/>
	<circle class="st4" cx="24.2" cy="16.6" r="3.7"/>
	
		<radialGradient id="SVGID_1_" cx="-27.1964" cy="-73.3513" r="20.7165" gradientTransform="matrix(0.1573 0 0 0.1573 27.3882 27.3882)" gradientUnits="userSpaceOnUse">
		<stop  offset="0" style="stop-color:#FFFFFF"/>
		<stop  offset="0.66" style="stop-color:#BD462F"/>
		<stop  offset="1" style="stop-color:#A72428"/>
	</radialGradient>
	<circle class="st5" cx="24.2" cy="16.6" r="3.7"/>
</g>
</svg>
